<svg width="42" height="37" viewBox="0 0 42 37" fill="none" xmlns="http://www.w3.org/2000/svg">
<path d="M39.8514 4.24208C40.7878 7.99439 43.645 20.8691 40.7067 27.4942C39.8186 29.4704 37.9141 30.8433 35.7455 31.3733C33.4677 31.93 31.5586 31.2301 29.9186 29.2607C28.5547 27.6312 25.9276 23.4404 23.6752 13.7509L23.6325 13.5762L27.9331 12.5251L27.9618 12.7217C28.8587 17.5762 30.3776 24.1859 33.2505 25.6688C33.9618 26.0504 34.7955 26.1429 35.5503 25.7548C39.3942 23.7042 36.7526 10.6842 35.6456 5.91814L39.8514 4.24208Z" fill="#8B8B8B"/>
<path d="M24.6635 0.000517443L19.772 21.9286L22.1932 35.7735L15.1329 36.6242L14.0855 23.1473L-0.00014111 5.99064L7.20757 2.422L15.4584 16.0974L17.644 0.631998L24.6635 0.000517443Z" fill="#8B8B8B"/>
</svg>
