<svg width="65" height="57" viewBox="0 0 65 57" fill="none" xmlns="http://www.w3.org/2000/svg">
<path d="M61.1633 5.99989C62.7292 11.7326 67.5553 31.4146 63.2663 41.6921C61.969 44.7582 59.0896 46.9319 55.7762 47.8197C52.2958 48.7523 49.3391 47.7417 46.7528 44.772C44.6023 42.315 40.4241 35.9659 36.6351 21.1568L36.5636 20.8898L43.1347 19.1291L43.1855 19.4302C44.728 26.8576 47.2858 36.9602 51.7497 39.1407C52.8553 39.703 54.1392 39.8168 55.2856 39.1948C61.1212 35.9143 56.6213 16.0018 54.759 8.71745L61.1633 5.99989Z" fill="#8B8B8B"/>
<path d="M37.6864 -0.000433034L30.916 33.8526L35.1053 55.0398L24.2878 56.5863L22.2214 35.9178L9.9423e-05 10.0388L10.9519 4.31189L24.0914 25.0409L26.9242 1.20787L37.6864 -0.000433034Z" fill="#8B8B8B"/>
</svg>
