<svg width="14" height="11" viewBox="0 0 14 11" fill="none" xmlns="http://www.w3.org/2000/svg">
<path d="M0 10.174C0 9.96639 0.0614585 9.76733 0.170855 9.62056C0.280252 9.4738 0.428626 9.39134 0.583336 9.39134H4.08335C4.23806 9.39134 4.38644 9.4738 4.49583 9.62056C4.60523 9.76733 4.66669 9.96639 4.66669 10.174C4.66669 10.3815 4.60523 10.5806 4.49583 10.7273C4.38644 10.8741 4.23806 10.9566 4.08335 10.9566H0.583336C0.428626 10.9566 0.280252 10.8741 0.170855 10.7273C0.0614585 10.5806 0 10.3815 0 10.174ZM0 5.47828C0 5.27072 0.0614585 5.07166 0.170855 4.92489C0.280252 4.77813 0.428626 4.69567 0.583336 4.69567H8.75004C8.90475 4.69567 9.05312 4.77813 9.16252 4.92489C9.27192 5.07166 9.33337 5.27072 9.33337 5.47828C9.33337 5.68585 9.27192 5.88491 9.16252 6.03167C9.05312 6.17844 8.90475 6.2609 8.75004 6.2609H0.583336C0.428626 6.2609 0.280252 6.17844 0.170855 6.03167C0.0614585 5.88491 0 5.68585 0 5.47828ZM0 0.782612C0 0.57505 0.0614585 0.37599 0.170855 0.229222C0.280252 0.0824537 0.428626 0 0.583336 0H13.4167C13.5714 0 13.7198 0.0824537 13.8292 0.229222C13.9386 0.37599 14.0001 0.57505 14.0001 0.782612C14.0001 0.990174 13.9386 1.18923 13.8292 1.336C13.7198 1.48277 13.5714 1.56522 13.4167 1.56522H0.583336C0.428626 1.56522 0.280252 1.48277 0.170855 1.336C0.0614585 1.18923 0 0.990174 0 0.782612Z" fill="black"/>
</svg>
