<svg 
          width="25" 
          height="25" fill="none" 
          xmlns="http://www.w3.org/2000/svg">
          <path d="M 3.9062497240525897 7.8124994481051795 C 4.44335906110982 7.8124994481051795 4.947916261943798 7.914224701335716 5.419921492122969 8.117675207796788 C 5.891926722302139 8.32112571425786 6.302897131679879 8.6018873855794 6.652832002792923 8.959960304545628 C 7.002766873905967 9.318033223511858 7.283528117509022 9.733072173908221 7.495116658025907 10.20507740408739 C 7.706705198542792 10.67708263426656 7.8124994481051795 11.18164071813225 7.8124994481051795 11.718750055189481 C 7.8124994481051795 12.255859392246713 7.710774194874643 12.760416593080691 7.507323688413571 13.23242182325986 C 7.303873181952499 13.70442705343903 7.023111952146816 14.119466003835395 6.665039033180587 14.477538922801623 C 6.306966114214359 14.83561184176785 5.891926722302139 15.116372630057679 5.419921492122969 15.319823136518751 C 4.947916261943798 15.523273642979824 4.44335906110982 15.624998896210359 3.9062497240525897 15.624998896210359 C 3.3691403869953587 15.624998896210359 2.864583186161381 15.523273642979824 2.3925779559822113 15.319823136518751 C 1.9205727258030414 15.116372630057679 1.5055337754066767 14.83968082430233 1.1474608564404483 14.489745953189287 C 0.7893879374742199 14.139811082076243 0.508626266152681 13.724772048895655 0.3051757596916086 13.244628853647525 C 0.10172525323053622 12.764485658399394 0 12.255859392246713 0 11.718750055189481 C 0 11.18164071813225 0.10172525323053622 10.67708263426656 0.3051757596916086 10.20507740408739 C 0.508626266152681 9.733072173908221 0.7853189549397392 9.322102206046337 1.1352538260527838 8.972167334933292 C 1.4851886971658284 8.622232463820248 1.9002277303464161 8.341470778701337 2.380370925594547 8.129882238184452 C 2.860514120842678 7.918293697667567 3.3691403869953587 7.8124994481051795 3.9062497240525897 7.8124994481051795 Z M 3.9062497240525897 14.062499889621035 C 4.231770534390305 14.062499889621035 4.536946266487173 14.001464737682713 4.821777003127416 13.87939443380607 C 5.106607739767658 13.757324129929426 5.354817757773911 13.590494728428718 5.566406298290796 13.378906187911833 C 5.777994838807682 13.167317647394947 5.944824240308391 12.91910807090455 6.066894544185034 12.634277334264308 C 6.188964848061678 12.349446597624066 6.25 12.044270865527198 6.25 11.718750055189481 C 6.25 11.393229244851765 6.188964848061678 11.088052629723185 6.066894544185034 10.803221893082943 C 5.944824240308391 10.518391156442702 5.777994838807682 10.270181579952304 5.566406298290796 10.058593039435419 C 5.354817757773911 9.847004498918533 5.106607739767658 9.680175097417825 4.821777003127416 9.558104793541181 C 4.536946266487173 9.436034489664538 4.231770534390305 9.374999337726216 3.9062497240525897 9.374999337726216 C 3.580728913714874 9.374999337726216 3.2755534023759347 9.436034489664538 2.9907226657356922 9.558104793541181 C 2.7058919290954497 9.680175097417825 2.457682131847125 9.847004498918533 2.246093591330239 10.058593039435419 C 2.0345050508133533 10.270181579952304 1.8676757596916087 10.518391156442702 1.7456054558149652 10.803221893082943 C 1.6235351519383217 11.088052629723185 1.5625 11.393229244851765 1.5625 11.718750055189481 C 1.5625 12.044270865527198 1.6235351519383217 12.349446597624066 1.7456054558149652 12.634277334264308 C 1.8676757596916087 12.91910807090455 2.0345050508133533 13.167317647394947 2.246093591330239 13.378906187911833 C 2.457682131847125 13.590494728428718 2.7058919290954497 13.757324129929426 2.9907226657356922 13.87939443380607 C 3.2755534023759347 14.001464737682713 3.580728913714874 14.062499889621035 3.9062497240525897 14.062499889621035 Z M 22.607422044017788 15.014647376827142 C 22.981770975906162 15.25878798458043 23.31542980650232 15.547687676160411 23.608398535806263 15.88134653435131 C 23.901367265110206 16.21500539254221 24.153645879324568 16.57714723885344 24.365234419841453 16.96777223885344 C 24.57682296035834 17.35839723885344 24.731445324572697 17.769367234310064 24.829101574572697 18.200682308007536 C 24.926757824572697 18.63199738170501 24.983723957758443 19.07551948579015 25 19.53124862026295 C 25 20.288084559487622 24.857584673071987 20.99609226678267 24.572753936431745 21.655271907716546 C 24.287923199791503 22.31445154865042 23.89729831017047 22.89632176319251 23.40087901921597 23.40087901921597 C 22.90445972826147 23.90543627523943 22.326658579038085 24.296061247644687 21.66747893810421 24.572753936431745 C 21.008299297170336 24.849446625218803 20.296222579746065 24.99186197887922 19.53124862026295 25 C 18.774412681038278 25 18.06640497374323 24.857584673071987 17.407225332809354 24.572753936431745 C 16.74804569187548 24.287923199791503 16.166177243396813 23.89729831017047 15.661619987373353 23.40087901921597 C 15.157062731349892 22.90445972826147 14.766438641976345 22.326658579038085 14.489745953189287 21.66747893810421 C 14.213053264402228 21.008299297170336 14.070637910741814 20.296222579746065 14.062499889621035 19.53124862026295 C 14.062499889621035 19.124347607340805 14.10318999091325 18.74186068278873 14.18457019349768 18.3837877638225 C 13.468424355565222 18.147785148732915 12.817382790079273 17.810057363197018 12.231445331471384 17.37060424164636 C 11.645507872863496 16.931151120095706 11.136880723679102 16.41845587140854 10.70556564998163 15.832518412800653 C 10.274250576284157 15.246580954192764 9.94872977974381 14.603678236807488 9.729003218968481 13.9038084945814 C 9.509276658193153 13.203938752355311 9.391275379967773 12.475585994414153 9.374999337726216 11.718750055189481 C 9.374999337726216 10.750325534055813 9.558104765946439 9.838866547646942 9.92431570517111 8.984374365320956 C 10.290526644395783 8.12988218299497 10.795084700666731 7.385253826052784 11.437988356273202 6.750488245894238 C 12.080892011879673 6.115722665735692 12.825520755148233 5.615234005920339 13.671874917215776 5.249023066695668 C 14.51822907928332 4.882812127470997 15.429686410007728 4.6956376899838865 16.406248841020876 4.687499668863108 C 16.552733205672848 4.687499668863108 16.699217570324823 4.691568678129993 16.845701934976795 4.699706699250772 C 16.992186299628766 4.7078447203715506 17.13867066428074 4.7200517481722075 17.28515502893271 4.736327790413765 C 17.22005085996648 4.451497053773522 17.187498785831394 4.174804392581205 17.187498785831394 3.9062497240525897 C 17.187498785831394 3.3691403869953587 17.289224039061928 2.864583186161381 17.492674545523002 2.3925779559822113 C 17.696125051984076 1.9205727258030414 17.972817740771134 1.509602757941157 18.32275261188418 1.1596678868281125 C 18.672687482997226 0.809733015715068 19.08772651617781 0.5289713305961588 19.567869711425942 0.31738279007927295 C 20.048012906674074 0.10579424956238717 20.556639172826753 0 21.093748509883984 0 C 21.630857846941215 0 22.135416813838617 0.10172525323053622 22.607422044017788 0.3051757596916086 C 23.07942727419696 0.508626266152681 23.49039724205884 0.7893879374742199 23.840332113171886 1.1474608564404483 C 24.190266984284932 1.5055337754066767 24.47102866940384 1.9205727258030414 24.682617209920725 2.3925779559822113 C 24.89420575043761 2.864583186161381 25 3.3691403869953587 25 3.9062497240525897 C 25 4.337564797750063 24.930826827803234 4.75260380333591 24.792480483409705 5.151366823594353 C 24.654134139016175 5.550129843852796 24.458821652813548 5.9163411418091005 24.206543024801817 6.25 C 23.954264396790087 6.5836588581908995 23.6531576472277 6.872558549770882 23.303222776114655 7.1166991575241685 C 22.95328790500161 7.360839765277455 22.57079921438611 7.543944779576564 22.15576015361078 7.666015083453208 C 22.578937234644552 8.260090617509022 22.896321749395142 8.898925152607307 23.107910289912027 9.58251885431651 C 23.319498830428913 10.266112556025712 23.429362089258184 10.978190156481697 23.437500110378963 11.718750055189481 C 23.437500110378963 12.296549493538928 23.368326938182197 12.862141901500708 23.229980593788667 13.415527279074825 C 23.09163424939514 13.968912656648941 22.884114732804846 14.501952100545239 22.607422044017788 15.014647376827142 Z M 18.74999867545243 3.9062497240525897 C 18.74999867545243 4.41080698007605 18.900552050233625 4.862467076824889 19.20165879979601 5.261230097083332 C 19.486489536436252 5.383300400959976 19.76318219762857 5.525716196998582 20.031736866157186 5.68847660216744 C 20.3002915346858 5.851237007336298 20.556639172826753 6.030273439224671 20.80077978058004 6.225585939224671 C 20.84960790558004 6.23372396034545 20.898436020232012 6.237792969612335 20.947264145232012 6.237792969612335 C 20.996092270232012 6.237792969612335 21.044920384883984 6.241861978879221 21.093748509883984 6.25 C 21.419269320221698 6.25 21.72444505231857 6.188964848061678 22.00927578895881 6.066894544185034 C 22.29410652559905 5.944824240308391 22.542317868152875 5.777994838807682 22.75390640866976 5.566406298290796 C 22.965494949186645 5.354817757773911 23.132324350687355 5.106607739767658 23.254394654564 4.821777003127416 C 23.376464958440643 4.536946266487173 23.437500110378963 4.231770534390305 23.437500110378963 3.9062497240525897 C 23.437500110378963 3.580728913714874 23.376464958440643 3.2755534023759347 23.254394654564 2.9907226657356922 C 23.132324350687355 2.7058919290954497 22.965494949186645 2.457682131847125 22.75390640866976 2.246093591330239 C 22.542317868152875 2.0345050508133533 22.29410652559905 1.8676757596916087 22.00927578895881 1.7456054558149652 C 21.72444505231857 1.6235351519383217 21.419269320221698 1.5625 21.093748509883984 1.5625 C 20.76822769954627 1.5625 20.463051967449402 1.6235351519383217 20.17822123080916 1.7456054558149652 C 19.89339049416892 1.8676757596916087 19.64518091767852 2.0345050508133533 19.433592377161634 2.246093591330239 C 19.22200383664475 2.457682131847125 19.05517443514404 2.7058919290954497 18.933104131267395 2.9907226657356922 C 18.81103382739075 3.2755534023759347 18.74999867545243 3.580728913714874 18.74999867545243 3.9062497240525897 Z M 10.937499227347251 11.718750055189481 C 10.937499227347251 12.30468751379737 11.027018319424464 12.87027986656967 11.206054778907578 13.415527279074825 C 11.385091238390693 13.96077469157998 11.645507872863496 14.465331009382247 11.987304723718097 14.929198164113492 C 12.329101574572698 15.393065318844737 12.7278645672364 15.795897321637659 13.183593701709203 16.13769417249226 C 13.639322836182005 16.479491023346863 14.152018057274425 16.739907657819664 14.72167953055491 16.91894411730278 C 15.226236786578369 16.031899909132502 15.897622574868198 15.336099177035635 16.735838661487815 14.831541921012176 C 17.574054748107432 14.326984664988718 18.505858067699144 14.070637910741814 19.53124862026295 14.062499889621035 C 20.109048058612395 14.062499889621035 20.666502446315732 14.147949102334685 21.203611783372963 14.318847527761987 C 21.42333834414829 13.920084507503544 21.590167745649 13.500976519383217 21.704100029267202 13.06152339783256 C 21.818032312885403 12.622070276281901 21.874998454694502 12.174479189662284 21.874998454694502 11.718750055189481 C 21.874998454694502 10.945638130637406 21.72037609737883 10.209146414216612 21.41113129996326 9.509276671990524 C 21.10188650254769 8.809406929764435 20.662433491375992 8.1990554655707 20.09277201809551 7.678222113840872 L 20.043943896544853 7.666015083453208 C 19.75911315990461 7.430012468363623 19.47835148858307 7.226562431013147 19.20165879979601 7.055664005585847 C 18.924966111008953 6.884765580158546 18.611652331058902 6.726074185118908 18.261717459945856 6.5795898204669365 L 18.249510429558192 6.5673827900792725 C 17.655434895502378 6.355794249562387 17.041014421179423 6.25 16.406248841020876 6.25 C 15.649412901796204 6.25 14.941406077532868 6.392415326928009 14.282226436598993 6.677246063568251 C 13.623046795665118 6.962076800208494 13.045247412505155 7.352701248313674 12.548828121550656 7.849120539268172 C 12.052408830596157 8.345539830222672 11.661783940975122 8.923339213382635 11.37695320433488 9.58251885431651 C 11.092122467694638 10.241698495250384 10.94563724846803 10.953776095706367 10.937499227347251 11.718750055189481 Z M 19.53124862026295 23.437500110378963 C 20.06835795732018 23.437500110378963 20.572915158154157 23.33577485714843 21.044920388333328 23.132324350687355 C 21.5169256185125 22.92887384422628 21.927897352437803 22.652181155439227 22.27783222355085 22.30224628432618 C 22.627767094663895 21.952311413213135 22.908528779782806 21.537270613969124 23.12011732029969 21.05712741872099 C 23.331705860816577 20.57698422347286 23.437500110378963 20.06835795732018 23.437500110378963 19.53124862026295 C 23.437500110378963 18.961587146982467 23.331705860816577 18.440753960821084 23.12011732029969 17.968748730641913 C 22.908528779782806 17.496743500462742 22.619629102000193 17.08577353260086 22.25341816277552 16.735838661487815 C 21.88720722355085 16.38590379037477 21.459959421513915 16.1132801255143 20.97167820600734 15.917967625514303 C 20.483396990500765 15.722655125514303 19.962563693960423 15.624998896210359 19.409178316386306 15.624998896210359 C 18.88834496465648 15.624998896210359 18.400063804339386 15.730793145772747 17.944334669866585 15.942381686289632 C 17.488605535393784 16.153970226806518 17.08577353260086 16.442869904589127 16.735838661487815 16.8090808438138 C 16.38590379037477 17.17529178303847 16.117349121846154 17.59033078862432 15.930174655901968 18.054197943355565 C 15.743000189957781 18.518065098086808 15.641274938451916 19.010415268533123 15.624998896210359 19.53124862026295 C 15.624998896210359 20.06835795732018 15.726724149440896 20.572915158154157 15.930174655901968 21.044920388333328 C 16.133625162363042 21.5169256185125 16.410317851150097 21.931966334972284 16.760252722263143 22.290039253938513 C 17.11018759337619 22.648112172904742 17.525226626556773 22.92887384422628 18.005369821804905 23.132324350687355 C 18.485513017053037 23.33577485714843 18.99413928320572 23.437500110378963 19.53124862026295 23.437500110378963 Z" fill="rgb(255,255,255)"/>
        </svg>